<?xml version="1.0" encoding="UTF-8"?>
<svg width="62px" height="34px" viewBox="0 0 62 34" version="1.1" xmlns="http://www.w3.org/2000/svg" xmlns:xlink="http://www.w3.org/1999/xlink">
    <!-- Generator: Sketch 54.1 (76490) - https://sketchapp.com -->
    <title>PICTO TRUCK</title>
    <desc>Created with Sketch.</desc>
    <g id="Symbols" stroke="none" stroke-width="1" fill="none" fill-rule="evenodd">
        <g id="DESKTOP/REASSURANCES" transform="translate(-1005.000000, -44.000000)" fill="#FFFFFF" stroke="#BF002B">
            <g id="REASSURANCES">
                <g id="PICTO-TRUCK" transform="translate(1006.000000, 45.000000)">
                    <path d="M59.5628049,16.0456585 L51.8026568,7.22601626 C51.5495645,6.93853659 51.1842334,6.77346341 50.8002178,6.77346341 L44.3383275,6.77346341 L44.3383275,1.32669919 C44.3383275,0.59395122 43.7415941,0 43.0057056,0 L15.4821429,0 C14.7462544,0 14.1495209,0.59395122 14.1495209,1.32669919 L14.1495209,3.11687805 L1.33262195,3.11687805 C0.596733449,3.11687805 0,3.71082927 0,4.44357724 C0,5.1763252 0.596733449,5.77027642 1.33262195,5.77027642 L14.1495209,5.77027642 L14.1495209,22.9683252 L6.43445122,22.9683252 C5.69856272,22.9683252 5.10182927,23.5622764 5.10182927,24.2950244 C5.10182927,25.0277724 5.69856272,25.6217236 6.43445122,25.6217236 L14.1495209,25.6217236 L14.1495209,26.9700163 C14.1495209,27.7027642 14.7462544,28.2967154 15.4821429,28.2967154 L18.263676,28.2967154 C18.8496951,30.4221138 20.8062282,31.9886829 23.1246951,31.9886829 C25.443162,31.9886829 27.3996951,30.4221138 27.9858449,28.2967154 L45.7675087,28.2967154 L45.7675087,28.2965854 C46.3535279,30.4219837 48.310061,31.9885528 50.6285279,31.9885528 C52.9469948,31.9885528 54.9035279,30.4219837 55.4896777,28.2965854 L58.5604965,28.2965854 C59.296385,28.2965854 59.8931185,27.7026341 59.8931185,26.9698862 L59.8931185,16.9196748 C59.8929878,16.5982439 59.7755226,16.2874797 59.5628049,16.0456585 Z M23.1246951,29.3352846 C21.8146777,29.3352846 20.7489983,28.2742114 20.7489983,26.9700163 C20.7489983,25.6658211 21.8146777,24.604748 23.1246951,24.604748 C24.4347125,24.604748 25.5005226,25.6658211 25.5005226,26.9700163 C25.5005226,28.2742114 24.4347125,29.3352846 23.1246951,29.3352846 Z M27.9855836,25.6433171 C27.3995645,23.5179187 25.4429007,21.9513496 23.1244338,21.9513496 C20.8059669,21.9513496 18.8495645,23.5179187 18.2634146,25.6433171 L16.8145035,25.6433171 L16.8145035,2.65326829 L41.672561,2.65326829 L41.672561,25.6433171 L27.9855836,25.6433171 Z M50.6282666,29.3352846 C49.3182491,29.3352846 48.2525697,28.2742114 48.2525697,26.9700163 C48.2525697,25.6658211 49.3182491,24.604748 50.6282666,24.604748 C51.938284,24.604748 53.0040941,25.6658211 53.0040941,26.9700163 C53.0040941,28.2742114 51.9384146,29.3352846 50.6282666,29.3352846 Z M57.2277439,25.6433171 L55.4894164,25.6433171 C54.9033972,23.5179187 52.9467334,21.9513496 50.6282666,21.9513496 C48.3097997,21.9513496 46.3533972,23.5179187 45.7672474,25.6433171 L44.3379355,25.6433171 L44.3379355,9.42686179 L50.1956446,9.42686179 L57.2276132,17.4186667 L57.2276132,25.6433171 L57.2277439,25.6433171 Z" id="Shape" fill-rule="nonzero"></path>
                    <path d="M2.04368467,23.4666667 L1.33262195,23.4666667 C0.596733449,23.4666667 0,24.0606179 0,24.7933659 C0,25.5261138 0.596733449,26.120065 1.33262195,26.120065 L2.04368467,26.120065 C2.77957317,26.120065 3.37630662,25.5261138 3.37630662,24.7933659 C3.37630662,24.0606179 2.77970383,23.4666667 2.04368467,23.4666667 Z" id="Path"></path>
                    <path d="M19.8998258,12.8 L5.61833624,12.8 C4.88244774,12.8 4.28571429,13.3939512 4.28571429,14.1266992 C4.28571429,14.8594472 4.88244774,15.4533984 5.61833624,15.4533984 L19.8998258,15.4533984 C20.6357143,15.4533984 21.2324477,14.8594472 21.2324477,14.1266992 C21.2324477,13.3939512 20.6357143,12.8 19.8998258,12.8 Z" id="Path"></path>
                </g>
            </g>
        </g>
    </g>
</svg>