<?xml version="1.0" encoding="UTF-8"?>
<svg width="36px" height="36px" viewBox="0 0 36 36" version="1.1" xmlns="http://www.w3.org/2000/svg" xmlns:xlink="http://www.w3.org/1999/xlink">
    <title>PICTO 30</title>
    <defs>
        <polygon id="path-1" points="0 0 36 0 36 36 0 36"></polygon>
    </defs>
    <g id="Page-1" stroke="none" stroke-width="1" fill="none" fill-rule="evenodd">
        <g id="PICTO-30" transform="translate(0.000000, -0.000000)">
            <mask id="mask-2" fill="white">
                <use xlink:href="#path-1"></use>
            </mask>
            <g id="Clip-2"></g>
            <path d="M17.0792938,17.7384629 C16.8943979,17.4435719 16.7476468,17.0486191 16.6385105,16.5514868 C16.5293743,16.0543545 16.4742763,15.4275126 16.4742763,14.6693726 C16.4742763,13.9117621 16.5293743,13.285979 16.6385105,12.7883173 C16.7476468,12.2917145 16.8943979,11.8957028 17.0792938,11.6008118 C17.2657791,11.307509 17.4771643,11.1015618 17.7182177,10.9834995 C17.9576817,10.8643784 18.2066819,10.8056119 18.4646885,10.8056119 C18.7279929,10.8056119 18.9801719,10.8643784 19.2222848,10.9834995 C19.4665169,11.1015618 19.6816107,11.307509 19.8696853,11.6008118 C20.0561706,11.8957028 20.2050409,12.2917145 20.3173559,12.7883173 C20.4280815,13.285979 20.4852985,13.9122915 20.4852985,14.6693726 C20.4852985,15.4275126 20.4280815,16.0543545 20.3173559,16.5514868 C20.2050409,17.0486191 20.0561706,17.4435719 19.8696853,17.7384629 C19.6816107,18.0328245 19.4665169,18.2387717 19.2222848,18.3563046 C18.9801719,18.4748963 18.7279929,18.5336628 18.4646885,18.5336628 C18.2066819,18.5336628 17.9576817,18.4748963 17.7182177,18.3563046 C17.4771643,18.2387717 17.2652493,18.0328245 17.0792938,17.7384629 L17.0792938,17.7384629 Z M20.0010726,19.6952263 C20.474173,19.4802788 20.8847584,19.1541516 21.2317693,18.7152563 C21.57931,18.2753022 21.8516209,17.7199329 22.0487019,17.0470308 C22.2457829,16.3741287 22.3443234,15.5810465 22.3443234,14.6693726 C22.3443234,13.7539928 22.2457829,12.9593223 22.0487019,12.2890673 C21.8516209,11.6182829 21.57931,11.0639725 21.2317693,10.6245478 C20.8847584,10.1856525 20.474173,9.85952528 20.0010726,9.64404835 C19.5258531,9.42963028 19.0140783,9.32215653 18.4646885,9.32215653 C17.9158285,9.32215653 17.4061728,9.42963028 16.936781,9.64404835 C16.4684487,9.85952528 16.0621016,10.1856525 15.7161502,10.6245478 C15.3701989,11.0639725 15.1015966,11.6182829 14.9071645,12.2890673 C14.7116729,12.9593223 14.6147217,13.7539928 14.6147217,14.6693726 C14.6147217,15.5810465 14.7116729,16.3741287 14.9071645,17.0470308 C15.1015966,17.7199329 15.3701989,18.2753022 15.7161502,18.7152563 C16.0621016,19.1541516 16.4684487,19.4802788 16.936781,19.6952263 C17.4061728,19.9101738 17.9158285,20.0171182 18.4646885,20.0171182 C19.0140783,20.0171182 19.5258531,19.9101738 20.0010726,19.6952263 L20.0010726,19.6952263 Z M11.5790386,18.0370599 C11.4269895,18.1958881 11.2373256,18.3240095 11.011636,18.4219536 C10.7832976,18.5204271 10.5199931,18.5691344 10.215895,18.5691344 C9.94676288,18.5691344 9.7141861,18.5304862 9.52028383,18.4505427 C9.3242624,18.3711286 9.15473036,18.2684197 9.00903876,18.1429454 C8.86652588,18.014824 8.74202579,17.8702903 8.63765763,17.708815 C8.53540861,17.5462808 8.43951705,17.3832172 8.35263188,17.2127416 C8.29965311,17.1137386 8.22336369,17.0369717 8.12429341,16.9850878 C8.02575291,16.9316156 7.91343793,16.9056737 7.78893783,16.9056737 C7.64960368,16.9056737 7.5118589,16.9337333 7.37729284,16.9919704 L6.58896884,17.3138622 C6.73360086,17.7575223 6.90843078,18.1503574 7.11027987,18.4902497 C7.31159917,18.8301421 7.55795042,19.1160328 7.84721447,19.3495103 C8.13594873,19.5840466 8.47448303,19.7614047 8.86652588,19.8810553 C9.25644958,19.999647 9.71365632,20.0600018 10.2381461,20.0600018 C10.7191932,20.0600018 11.1758702,19.9901174 11.6076471,19.8519368 C12.0378347,19.7126974 12.416103,19.5083385 12.7445714,19.2393894 C13.0725099,18.968852 13.3326357,18.6353128 13.5244188,18.2387717 C13.7177913,17.8432895 13.8147424,17.3863937 13.8147424,16.8686138 C13.8147424,16.2624195 13.661104,15.7573458 13.3511782,15.3565693 C13.0439014,14.9542045 12.5760989,14.6556075 11.9509495,14.4602488 C12.2105454,14.3744816 12.4425924,14.2664784 12.6465607,14.138357 C12.8521183,14.0091767 13.0253588,13.8519368 13.1678717,13.6639901 C13.3103846,13.4776317 13.418991,13.2605665 13.4926315,13.0085591 C13.566272,12.7576105 13.6049465,12.4674843 13.6049465,12.1365923 C13.6049465,11.7601694 13.531306,11.4091591 13.3840251,11.0825024 C13.2372739,10.7590223 13.0264184,10.4752493 12.753048,10.2317127 C12.4770286,9.99188211 12.1459114,9.80340598 11.7591664,9.66840201 C11.3703023,9.53233919 10.9364062,9.46245478 10.455359,9.46245478 C9.99338419,9.46245478 9.5600179,9.52651549 9.15790908,9.65198976 C8.75527048,9.78011118 8.40031276,9.96858731 8.08932742,10.2200653 C7.77781229,10.4715433 7.51980571,10.7839054 7.31212896,11.1592694 C7.10551178,11.5351628 6.96564784,11.9714109 6.89359673,12.4674843 L7.83185063,12.6310774 C7.91926559,12.6448425 8.00085289,12.6517251 8.07767209,12.6517251 C8.24243605,12.6517251 8.37382338,12.6125474 8.47448303,12.5341922 C8.57567247,12.4547781 8.65620019,12.3255978 8.71394704,12.1418865 C8.82520245,11.7951116 9.02069409,11.5102797 9.29989217,11.2879202 C9.57803068,11.0660902 9.93033946,10.9533222 10.3536398,10.9533222 C10.8209125,10.9533222 11.1907042,11.0798553 11.4593066,11.3302744 C11.7289685,11.5828113 11.8635345,11.9544692 11.8635345,12.4457778 C11.8635345,12.6755493 11.8296281,12.8852025 11.7634047,13.0763258 C11.6950621,13.2669196 11.5763896,13.4315715 11.4052682,13.5676343 C11.2346766,13.704756 11.0047488,13.8101121 10.7149549,13.8879379 C10.4267505,13.9641754 10.0622566,14.0017648 9.62465199,14.0017648 L9.62465199,15.2708021 C10.1539098,15.2708021 10.5772102,15.3110386 10.8913742,15.3936292 C11.2081872,15.4741022 11.45083,15.5858113 11.6177131,15.7292862 C11.7877749,15.8722315 11.897441,16.0469426 11.9509495,16.2497132 C12.0033985,16.4530133 12.0309474,16.6790788 12.0309474,16.9263214 C12.0309474,17.1227389 11.9917432,17.3170387 11.9175729,17.5097503 C11.8428728,17.7045795 11.7305578,17.8803494 11.5790386,18.0370599 L11.5790386,18.0370599 Z M26.8189097,31.4252184 C24.5482399,31.5416924 22.7066981,31.0366187 21.5411653,29.9518221 C20.2691452,28.7711992 19.7420065,26.8583782 19.9724641,24.2684197 L18.4652183,24.1371217 C18.193967,27.2099179 18.8805718,29.5367511 20.5080794,31.0472073 C21.9628763,32.3983058 24.166263,33.0479132 26.8189097,32.9266743 L26.8189097,36 L31.1303215,32.3697168 L26.8189097,28.1401218 L26.8189097,31.4252184 Z M35.152999,21.9341745 C34.0568684,20.0848848 31.8842093,18.7835525 28.9740858,18.2165358 L28.9740858,15.1320921 L24.6621443,18.7618459 L28.9740858,22.9919704 L28.9740858,19.7508162 C31.3051514,20.2574782 33.012657,21.2808612 33.8518406,22.6933733 C34.7355264,24.1826524 34.6979115,26.1658872 33.7395256,28.5848407 L35.1471714,29.132798 C36.2819765,26.2617136 36.2846254,23.8385247 35.152999,21.9341745 L35.152999,21.9341745 Z M1.50618625,1.34686314 L7.95635072,1.34686314 L7.95635072,3.57786994 C7.48748867,3.85423101 7.17862247,4.32753905 7.17862247,4.86914321 C7.17862247,5.72152122 7.95158264,6.41401218 8.90520038,6.41401218 C9.86146707,6.41401218 10.6365464,5.72152122 10.6365464,4.86914321 C10.6360166,4.26559605 10.2471525,3.74993382 9.68504778,3.49422042 L9.68504778,1.34686314 L13.7871935,1.34686314 L13.7871935,3.57786994 C13.3178016,3.85423101 13.0078758,4.32753905 13.0078758,4.86914321 C13.0078758,5.72152122 13.780836,6.41401218 14.7371027,6.41401218 C15.69178,6.41401218 16.4663295,5.72152122 16.4663295,4.86914321 C16.4663295,4.26559605 16.0774654,3.74993382 15.5153607,3.49422042 L15.5153607,1.34686314 L19.3981743,1.34686314 L19.3981743,3.57786994 C18.9293123,3.85423101 18.6199163,4.32753905 18.6199163,4.86914321 C18.6199163,5.72152122 19.3928764,6.41401218 20.3491431,6.41401218 C21.3032907,6.41401218 22.0773104,5.72152122 22.0773104,4.86914321 C22.0773104,4.26559605 21.6900356,3.74993382 21.1279309,3.49422042 L21.1279309,1.34686314 L27.6983572,1.34686314 L27.6983572,12.0820612 L29.2050732,12.0820612 L29.2050732,0 L0,0 L0,27.2649784 L14.209964,27.2649784 L14.209964,25.715874 L1.50618625,25.715874 L1.50618625,1.34686314 Z" id="Fill-1" fill="#FFFFFF" mask="url(#mask-2)"></path>
        </g>
    </g>
</svg>