<?xml version="1.0" encoding="UTF-8"?>
<svg width="27px" height="36px" viewBox="0 0 27 36" version="1.1" xmlns="http://www.w3.org/2000/svg" xmlns:xlink="http://www.w3.org/1999/xlink">
    <!-- Generator: Sketch 54.1 (76490) - https://sketchapp.com -->
    <title>PICTO CADENAS</title>
    <desc>Created with Sketch.</desc>
    <g id="Symbols" stroke="none" stroke-width="1" fill="none" fill-rule="evenodd">
        <g id="DESKTOP/REASSURANCES" transform="translate(-777.000000, -43.000000)" fill="#FFFFFF" fill-rule="nonzero">
            <g id="REASSURANCES">
                <g id="PICTO-CADENAS" transform="translate(777.000000, 43.000000)">
                    <path d="M13.5,19.9504515 C12.0351122,19.9504515 10.843324,21.1422398 10.843324,22.6071964 C10.843324,23.8329413 11.6779133,24.8668622 12.8084694,25.1719898 L12.8084694,28.9929719 C12.8084694,29.3748291 13.1181429,29.6844337 13.4999311,29.6844337 C13.8817883,29.6844337 14.1913929,29.3747602 14.1913929,28.9929719 L14.1913929,25.1719898 C15.321949,24.8668622 16.1565383,23.8328724 16.1565383,22.6071964 C16.156676,21.1422398 14.9648878,19.9504515 13.5,19.9504515 Z M13.5,23.8808112 C12.7976556,23.8808112 12.2263163,23.3094719 12.2263163,22.6071276 C12.2263163,21.9047832 12.7976556,21.333375 13.5,21.333375 C14.2023444,21.333375 14.7736837,21.9047832 14.7736837,22.6071276 C14.7736837,23.3094719 14.2023444,23.8808112 13.5,23.8808112 Z" id="Shape"></path>
                    <path d="M22.8355944,12.5198724 L21.2846097,12.5198724 L21.2846097,7.78460969 C21.2846097,3.49216071 17.792449,0 13.5,0 C9.20755102,0 5.71539031,3.49216071 5.71539031,7.78460969 L5.71539031,12.5198036 L4.16440561,12.5198036 C1.89309949,12.5198036 0.045252551,14.367375 0.045252551,16.6383367 L0.045252551,31.1462219 C0.045252551,33.4175969 1.89316837,35.265375 4.16440561,35.265375 L22.8356633,35.265375 C25.1069694,35.265375 26.9548163,33.4175281 26.9548163,31.1462219 L26.9548163,16.6383367 C26.9547474,14.367375 25.1068316,12.5198724 22.8355944,12.5198724 Z M7.09831378,7.78460969 C7.09831378,4.25470408 9.97009439,1.38292347 13.5,1.38292347 C17.0299056,1.38292347 19.9016862,4.25470408 19.9016862,7.78460969 L19.9016862,12.5198036 L17.9516939,12.5198036 L17.9516939,7.78460969 C17.9516939,5.32953827 15.9546582,3.33215816 13.5,3.33215816 C11.0453418,3.33215816 9.04830612,5.32946939 9.04830612,7.78460969 L9.04830612,12.5198036 L7.09831378,12.5198036 L7.09831378,7.78460969 Z M16.5687704,7.78460969 L16.5687704,12.5198036 L10.4312296,12.5198036 L10.4312296,7.78460969 C10.4312296,6.09208163 11.8078852,4.71515051 13.5,4.71515051 C15.1921148,4.71515051 16.5687704,6.09208163 16.5687704,7.78460969 Z M25.571824,31.1461531 C25.571824,32.6549158 24.3443571,33.8823138 22.8356633,33.8823138 L4.16440561,33.8823138 C2.65564286,33.8823138 1.4282449,32.6548469 1.4282449,31.1461531 L1.4282449,16.6383367 C1.4282449,15.1300561 2.65571173,13.9027959 4.16440561,13.9027959 L6.40685204,13.9027959 L9.73976786,13.9027959 L17.260301,13.9027959 L20.5932168,13.9027959 L22.8356633,13.9027959 C24.344426,13.9027959 25.571824,15.1299872 25.571824,16.6383367 L25.571824,31.1461531 L25.571824,31.1461531 Z" id="Shape"></path>
                </g>
            </g>
        </g>
    </g>
</svg>